<svg width="1407" height="158" viewBox="0 0 1407 158" fill="none" xmlns="http://www.w3.org/2000/svg">
<circle cx="78.8614" cy="78.8614" r="78.8614" fill="url(#paint0_linear_225_2)"/>
<mask id="mask0_225_2" style="mask-type:alpha" maskUnits="userSpaceOnUse" x="0" y="0" width="158" height="158">
<circle cx="78.8614" cy="78.8614" r="78.8614" fill="url(#paint1_linear_225_2)"/>
</mask>
<g mask="url(#mask0_225_2)">
<path d="M0 91.7253C4.23744 89.9599 11.0513 84.4063 8.88737 79.3675C5.39992 71.2466 13.0498 70.7759 16.6498 75.6013C21.7891 82.4901 20.9579 92.3118 24.9746 90.7837C31.1621 88.4299 29.9246 52.6512 35.7745 52.6511C41.6244 52.6511 45.5352 97.6077 50.3993 104.083C56.87 112.697 59.2347 62.1692 65.6193 62.1692C69.8757 62.1692 71.4942 73.2149 73.3489 79.3675C80.0192 101.494 83.8215 86.7965 86.2863 80.7798C88.9862 74.189 92.3399 67.4571 98.7736 81.7213C106.385 98.5965 108.183 75.6013 113.061 75.6013C117.939 75.6013 117.76 83.4381 120.823 85.8407C123.887 88.2433 126.673 81.1329 130.498 81.7213C138.688 81.7213 152.023 81.7213 157.723 81.7213" stroke="white" stroke-width="4.61853"/>
</g>
<path d="M241.737 91.3662H225.426V118.986H209.48V42.1723H242.936C250.648 42.1723 256.798 44.1526 261.384 48.1131C265.969 52.0736 268.262 58.2055 268.262 66.5087C268.262 75.5762 265.969 81.986 261.384 85.7381C256.798 89.4901 250.249 91.3662 241.737 91.3662ZM249.241 75.3677C251.326 73.5264 252.368 70.6082 252.368 66.6129C252.368 62.6176 251.309 59.7688 249.189 58.0665C247.105 56.3642 244.169 55.513 240.382 55.513H225.426V78.1297H240.382C244.169 78.1297 247.122 77.209 249.241 75.3677ZM281.238 68.3326C285.164 63.3298 291.904 60.8284 301.458 60.8284C307.677 60.8284 313.2 62.0618 318.029 64.5284C322.859 66.9951 325.273 71.6504 325.273 78.4945V104.551C325.273 106.357 325.308 108.546 325.377 111.117C325.481 113.062 325.777 114.382 326.263 115.077C326.75 115.772 327.479 116.345 328.452 116.797V118.986H312.297C311.845 117.839 311.533 116.762 311.359 115.755C311.185 114.747 311.046 113.601 310.942 112.315C308.892 114.539 306.53 116.432 303.855 117.995C300.659 119.837 297.046 120.757 293.016 120.757C287.874 120.757 283.618 119.298 280.248 116.38C276.913 113.427 275.245 109.258 275.245 103.873C275.245 96.89 277.938 91.8352 283.323 88.7084C286.276 87.0061 290.618 85.7902 296.351 85.0606L301.406 84.4352C304.15 84.0878 306.113 83.6536 307.294 83.1324C309.414 82.2292 310.473 80.8221 310.473 78.9114C310.473 76.5837 309.657 74.9856 308.024 74.117C306.426 73.2138 304.063 72.7621 300.937 72.7621C297.428 72.7621 294.944 73.6307 293.485 75.3677C292.442 76.6532 291.748 78.3902 291.4 80.5789H277.069C277.382 75.6109 278.772 71.5288 281.238 68.3326ZM292.286 108.25C293.676 109.397 295.378 109.97 297.393 109.97C300.589 109.97 303.525 109.032 306.2 107.156C308.91 105.28 310.317 101.858 310.421 96.89V91.3662C309.483 91.9568 308.528 92.4431 307.555 92.8253C306.617 93.1727 305.314 93.5028 303.647 93.8154L300.311 94.4408C297.185 94.9966 294.944 95.6741 293.589 96.4732C291.296 97.8281 290.149 99.9299 290.149 102.779C290.149 105.315 290.862 107.139 292.286 108.25ZM364.513 108.407V119.507L357.478 119.767C350.461 120.01 345.666 118.795 343.095 116.119C341.428 114.417 340.594 111.794 340.594 108.25V73.2832H332.673V62.7045H340.594V46.8624H355.29V62.7045H364.513V73.2832H355.29V103.3C355.29 105.628 355.585 107.087 356.176 107.677C356.766 108.233 358.573 108.511 361.595 108.511C362.047 108.511 362.516 108.511 363.002 108.511C363.523 108.476 364.027 108.442 364.513 108.407ZM402.607 75.8889C396.632 75.8889 392.619 77.8344 390.57 81.7254C389.423 83.9141 388.85 87.284 388.85 91.8352V118.986H373.894V62.1834H388.068V72.0847C390.361 68.2979 392.359 65.7096 394.061 64.32C396.84 61.9923 400.453 60.8284 404.9 60.8284C405.178 60.8284 405.404 60.8458 405.578 60.8806C405.786 60.8806 406.221 60.8979 406.881 60.9327V76.1494C405.943 76.0452 405.109 75.9757 404.379 75.941C403.65 75.9062 403.059 75.8889 402.607 75.8889ZM430.904 62.1834V118.986H415.844V62.1834H430.904ZM430.904 41.7033V55.4088H415.844V41.7033H430.904ZM494.481 82.5592H479.264C478.986 80.44 478.274 78.5292 477.128 76.8269C475.46 74.5339 472.872 73.3875 469.363 73.3875C464.36 73.3875 460.938 75.8715 459.097 80.8395C458.124 83.4799 457.638 86.9887 457.638 91.3662C457.638 95.5351 458.124 98.8877 459.097 101.424C460.869 106.149 464.204 108.511 469.103 108.511C472.577 108.511 475.043 107.573 476.502 105.697C477.962 103.821 478.848 101.389 479.16 98.4013H494.325C493.977 102.918 492.345 107.191 489.426 111.221C484.771 117.718 477.875 120.966 468.738 120.966C459.601 120.966 452.878 118.256 448.57 112.836C444.262 107.417 442.108 100.382 442.108 91.7309C442.108 81.9686 444.488 74.3776 449.248 68.9579C454.007 63.5383 460.574 60.8284 468.946 60.8284C476.068 60.8284 481.887 62.4266 486.404 65.6228C490.955 68.819 493.647 74.4645 494.481 82.5592ZM556.859 118.986H538.933L525.332 94.7013L519.182 101.111V118.986H504.591V42.4329H519.182V83.8099L537.682 62.4439H556.078L536.223 84.1747L556.859 118.986ZM649.254 113.253C643.522 118.499 636.191 121.122 627.263 121.122C616.215 121.122 607.53 117.579 601.207 110.491C594.884 103.369 591.722 93.607 591.722 81.2043C591.722 67.7941 595.318 57.4585 602.51 50.1976C608.763 43.8746 616.719 40.7132 626.377 40.7132C639.301 40.7132 648.75 44.9516 654.726 53.4285C658.026 58.1881 659.798 62.965 660.041 67.7594H643.991C642.949 64.0768 641.611 61.2975 639.978 59.4214C637.06 56.0862 632.735 54.4187 627.002 54.4187C621.166 54.4187 616.563 56.7811 613.193 61.5059C609.823 66.196 608.138 72.849 608.138 81.4649C608.138 90.0807 609.91 96.5426 613.453 100.851C617.032 105.124 621.565 107.26 627.054 107.26C632.683 107.26 636.973 105.419 639.926 101.736C641.559 99.7562 642.914 96.7858 643.991 92.8253H659.885C658.495 101.198 654.952 108.007 649.254 113.253ZM607.304 20.9105H619.394L626.221 29.7175L632.995 20.9105H645.085L632.891 36.4921H619.55L607.304 20.9105ZM686.254 62.1834V118.986H671.193V62.1834H686.254ZM686.254 41.7033V55.4088H671.193V41.7033H686.254ZM748.267 68.2805C752.853 73.179 755.146 80.3705 755.146 89.8549C755.146 99.8604 752.888 107.486 748.372 112.732C743.89 117.978 738.105 120.601 731.018 120.601C726.502 120.601 722.75 119.472 719.762 117.214C718.129 115.963 716.531 114.139 714.968 111.742V141.342H700.272V62.1834H714.499V70.5734C716.097 68.1068 717.799 66.1613 719.606 64.7369C722.906 62.2007 726.832 60.9327 731.383 60.9327C738.019 60.9327 743.647 63.3819 748.267 68.2805ZM739.825 90.5845C739.825 86.2071 738.818 82.3334 736.803 78.9635C734.822 75.5936 731.591 73.9086 727.11 73.9086C721.725 73.9086 718.025 76.4621 716.01 81.5691C714.968 84.2789 714.447 87.7183 714.447 91.8873C714.447 98.4882 716.201 103.126 719.71 105.801C721.794 107.365 724.261 108.146 727.11 108.146C731.244 108.146 734.388 106.548 736.542 103.352C738.731 100.156 739.825 95.8999 739.825 90.5845ZM781.202 62.1834V118.986H766.142V62.1834H781.202ZM781.202 41.7033V55.4088H766.142V41.7033H781.202ZM844.779 82.5592H829.562C829.284 80.44 828.572 78.5292 827.426 76.8269C825.758 74.5339 823.17 73.3875 819.661 73.3875C814.658 73.3875 811.236 75.8715 809.395 80.8395C808.422 83.4799 807.936 86.9887 807.936 91.3662C807.936 95.5351 808.422 98.8877 809.395 101.424C811.167 106.149 814.502 108.511 819.4 108.511C822.874 108.511 825.341 107.573 826.8 105.697C828.259 103.821 829.145 101.389 829.458 98.4013H844.623C844.275 102.918 842.642 107.191 839.724 111.221C835.069 117.718 828.173 120.966 819.036 120.966C809.899 120.966 803.176 118.256 798.868 112.836C794.56 107.417 792.406 100.382 792.406 91.7309C792.406 81.9686 794.786 74.3776 799.546 68.9579C804.305 63.5383 810.871 60.8284 819.244 60.8284C826.366 60.8284 832.185 62.4266 836.702 65.6228C841.253 68.819 843.945 74.4645 844.779 82.5592ZM810.072 56.451L820.078 40.8695H836.649L820.807 56.451H810.072ZM933.057 117.11C928.818 119.715 923.607 121.018 917.423 121.018C907.244 121.018 898.906 117.492 892.409 110.439C885.635 103.352 882.248 93.6591 882.248 81.3606C882.248 68.9232 885.67 58.9524 892.514 51.4483C899.358 43.9441 908.408 40.192 919.664 40.192C929.426 40.192 937.261 42.6761 943.167 47.6441C949.107 52.5774 952.512 58.744 953.381 66.1439H937.591C936.375 60.8979 933.404 57.2327 928.68 55.1482C926.039 54.0018 923.104 53.4285 919.873 53.4285C913.689 53.4285 908.599 55.7736 904.604 60.4637C900.643 65.119 898.663 72.1368 898.663 81.517C898.663 90.9666 900.817 97.6544 905.125 101.58C909.433 105.506 914.331 107.469 919.82 107.469C925.205 107.469 929.618 105.923 933.057 102.831C936.496 99.7041 938.616 95.622 939.415 90.5845H921.644V77.7649H953.641V118.986H943.01L941.395 109.397C938.303 113.045 935.524 115.616 933.057 117.11ZM996.373 75.8889C990.398 75.8889 986.385 77.8344 984.335 81.7254C983.189 83.9141 982.616 87.284 982.616 91.8352V118.986H967.659V62.1834H981.834V72.0847C984.127 68.2979 986.124 65.7096 987.827 64.32C990.606 61.9923 994.219 60.8284 998.666 60.8284C998.944 60.8284 999.17 60.8458 999.344 60.8806C999.552 60.8806 999.986 60.8979 1000.65 60.9327V76.1494C999.708 76.0452 998.875 75.9757 998.145 75.941C997.415 75.9062 996.825 75.8889 996.373 75.8889ZM1045.83 110.96C1045.69 111.134 1045.34 111.655 1044.79 112.524C1044.23 113.392 1043.57 114.157 1042.81 114.817C1040.48 116.901 1038.22 118.326 1036.03 119.09C1033.88 119.854 1031.34 120.236 1028.42 120.236C1020.01 120.236 1014.35 117.214 1011.43 111.169C1009.8 107.834 1008.98 102.918 1008.98 96.421V62.1834H1024.2V96.421C1024.2 99.652 1024.58 102.084 1025.35 103.717C1026.7 106.6 1029.36 108.042 1033.32 108.042C1038.39 108.042 1041.87 105.992 1043.74 101.893C1044.72 99.6694 1045.2 96.7337 1045.2 93.0859V62.1834H1060.26V118.986H1045.83V110.96ZM1038.22 41.1822H1051.82V53.5327H1038.22V41.1822ZM1017.37 41.1822H1030.98V53.5327H1017.37V41.1822ZM1105.5 120.497C1100.81 120.497 1097.04 119.559 1094.19 117.683C1092.49 116.571 1090.64 114.626 1088.66 111.846V118.986H1074.12V42.2765H1088.92V69.5833C1090.8 66.9429 1092.87 64.9279 1095.13 63.5383C1097.8 61.8012 1101.21 60.9327 1105.34 60.9327C1112.81 60.9327 1118.65 63.6251 1122.85 69.0101C1127.09 74.395 1129.21 81.3433 1129.21 89.8549C1129.21 98.6792 1127.12 105.992 1122.95 111.794C1118.78 117.596 1112.97 120.497 1105.5 120.497ZM1113.63 91.4183C1113.63 87.3883 1113.1 84.0531 1112.06 81.4127C1110.08 76.41 1106.43 73.9086 1101.12 73.9086C1095.73 73.9086 1092.03 76.3579 1090.02 81.2564C1088.98 83.862 1088.46 87.2319 1088.46 91.3662C1088.46 96.23 1089.53 100.26 1091.69 103.456C1093.84 106.652 1097.12 108.25 1101.54 108.25C1105.36 108.25 1108.33 106.705 1110.45 103.613C1112.57 100.521 1113.63 96.4558 1113.63 91.4183ZM1188.51 102.31C1188.13 105.68 1186.37 109.102 1183.25 112.576C1178.38 118.1 1171.57 120.862 1162.82 120.862C1155.59 120.862 1149.22 118.534 1143.69 113.879C1138.17 109.223 1135.41 101.65 1135.41 91.1577C1135.41 81.3259 1137.89 73.787 1142.86 68.541C1147.86 63.2951 1154.34 60.6721 1162.3 60.6721C1167.02 60.6721 1171.28 61.558 1175.07 63.3298C1178.85 65.1016 1181.98 67.8983 1184.45 71.7199C1186.67 75.0898 1188.11 78.9982 1188.77 83.4451C1189.15 86.0507 1189.31 89.8028 1189.24 94.7013H1150.36C1150.57 100.399 1152.36 104.394 1155.73 106.687C1157.78 108.112 1160.25 108.824 1163.13 108.824C1166.19 108.824 1168.67 107.955 1170.58 106.218C1171.63 105.28 1172.55 103.977 1173.35 102.31H1188.51ZM1173.82 84.9043C1173.57 80.9785 1172.37 78.0081 1170.22 75.9931C1168.1 73.9433 1165.46 72.9185 1162.3 72.9185C1158.86 72.9185 1156.18 73.9954 1154.27 76.1494C1152.4 78.3034 1151.22 81.2217 1150.73 84.9043H1173.82ZM1226.03 73.179C1220.99 73.179 1217.54 75.3156 1215.66 79.5888C1214.69 81.847 1214.2 84.7305 1214.2 88.2394V118.986H1199.4V62.2876H1213.73V70.5734C1215.64 67.6551 1217.45 65.5533 1219.15 64.2678C1222.21 61.9749 1226.08 60.8284 1230.77 60.8284C1236.64 60.8284 1241.44 62.3744 1245.16 65.4664C1248.91 68.5237 1250.78 73.6133 1250.78 80.7353V118.986H1235.57V84.4352C1235.57 81.4475 1235.17 79.1546 1234.37 77.5564C1232.91 74.6382 1230.13 73.179 1226.03 73.179ZM1313.16 102.31C1312.78 105.68 1311.03 109.102 1307.9 112.576C1303.04 118.1 1296.23 120.862 1287.47 120.862C1280.25 120.862 1273.87 118.534 1268.35 113.879C1262.82 109.223 1260.06 101.65 1260.06 91.1577C1260.06 81.3259 1262.54 73.787 1267.51 68.541C1272.52 63.2951 1278.99 60.6721 1286.95 60.6721C1291.68 60.6721 1295.93 61.558 1299.72 63.3298C1303.5 65.1016 1306.63 67.8983 1309.1 71.7199C1311.32 75.0898 1312.76 78.9982 1313.42 83.4451C1313.81 86.0507 1313.96 89.8028 1313.89 94.7013H1275.02C1275.23 100.399 1277.01 104.394 1280.38 106.687C1282.43 108.112 1284.9 108.824 1287.78 108.824C1290.84 108.824 1293.33 107.955 1295.24 106.218C1296.28 105.28 1297.2 103.977 1298 102.31H1313.16ZM1298.47 84.9043C1298.22 80.9785 1297.03 78.0081 1294.87 75.9931C1292.75 73.9433 1290.11 72.9185 1286.95 72.9185C1283.51 72.9185 1280.84 73.9954 1278.93 76.1494C1277.05 78.3034 1275.87 81.2217 1275.38 84.9043H1298.47ZM1352.51 75.8889C1346.53 75.8889 1342.52 77.8344 1340.47 81.7254C1339.32 83.9141 1338.75 87.284 1338.75 91.8352V118.986H1323.79V62.1834H1337.97V72.0847C1340.26 68.2979 1342.26 65.7096 1343.96 64.32C1346.74 61.9923 1350.35 60.8284 1354.8 60.8284C1355.08 60.8284 1355.3 60.8458 1355.48 60.8806C1355.69 60.8806 1356.12 60.8979 1356.78 60.9327V76.1494C1355.84 76.0452 1355.01 75.9757 1354.28 75.941C1353.55 75.9062 1352.96 75.8889 1352.51 75.8889Z" fill="url(#paint2_linear_225_2)"/>
<defs>
<linearGradient id="paint0_linear_225_2" x1="0" y1="0" x2="185.556" y2="46.389" gradientUnits="userSpaceOnUse">
<stop stop-color="#0426CB"/>
<stop offset="1" stop-color="#65C87A"/>
</linearGradient>
<linearGradient id="paint1_linear_225_2" x1="0" y1="0" x2="185.556" y2="46.389" gradientUnits="userSpaceOnUse">
<stop stop-color="#0426CB"/>
<stop offset="1" stop-color="#65C87A"/>
</linearGradient>
<linearGradient id="paint2_linear_225_2" x1="200.986" y1="20.9856" x2="415.287" y2="547.421" gradientUnits="userSpaceOnUse">
<stop stop-color="#0426CB"/>
<stop offset="1" stop-color="#65C87A"/>
</linearGradient>
</defs>
</svg>
